<?xml version="1.0" encoding="utf-8"?>
<!-- Generator: Adobe Illustrator 18.1.1, SVG Export Plug-In . SVG Version: 6.00 Build 0)  -->
<svg version="1.1" id="_x32_1" xmlns="http://www.w3.org/2000/svg" xmlns:xlink="http://www.w3.org/1999/xlink" x="0px" y="0px"
	 width="178px" height="178.2px" viewBox="0 0 178 178.2" enable-background="new 0 0 178 178.2" xml:space="preserve">
<circle fill="none" stroke="#408F78" stroke-width="3" stroke-miterlimit="10" cx="89" cy="89.5" r="86"/>
<path fill-rule="evenodd" clip-rule="evenodd" fill="#408F78" d="M115.9,89.3c0-1.4-0.2-2.8-0.5-4.1c-0.3-1.6-0.8-3.2-1.4-4.7
	c-0.7-1.5-1.4-2.9-2.3-4.3c-0.9-1.3-1.9-2.5-3-3.7c-1.1-1.1-2.4-2.2-3.7-3c-1.3-0.9-2.7-1.6-4.2-2.3c-1.5-0.6-3.1-1.1-4.7-1.4
	c-1.6-0.3-3.3-0.5-5-0.5c-1.7,0-3.4,0.2-5,0.5c-1.6,0.3-3.2,0.8-4.7,1.4c-1.5,0.7-2.9,1.4-4.3,2.3c-1.3,0.9-2.6,1.9-3.7,3
	c-1.2,1.2-2.2,2.4-3,3.7c-0.9,1.4-1.7,2.8-2.3,4.3c-0.7,1.5-1.2,3.1-1.5,4.7c-0.3,1.3-0.4,2.6-0.5,3.8c-0.1,0.4-0.1,0.8-0.1,1.2
	c0,1.7,0.2,3.3,0.5,5c0.3,1.6,0.8,3.2,1.5,4.7c0.6,1.5,1.3,2.9,2.3,4.3c0.9,1.3,1.9,2.5,3,3.7c1.1,1.2,2.4,2.2,3.7,3
	c1.3,0.9,2.8,1.6,4.3,2.3c1.5,0.7,3.1,1.2,4.7,1.5c1.6,0.4,3.3,0.5,5,0.5c1.7,0,3.4-0.1,5-0.5c1.6-0.3,3.2-0.8,4.7-1.5
	c1.5-0.6,2.9-1.4,4.2-2.3c1.3-0.9,2.6-1.9,3.7-3c1.1-1.2,2.1-2.4,3-3.7c0.9-1.4,1.7-2.8,2.3-4.3c0.6-1.5,1.1-3.1,1.4-4.7
	c0.3-1.6,0.5-3.3,0.5-5C115.9,89.9,115.9,89.6,115.9,89.3L115.9,89.3z M89.9,67.2c6.6,0,12.6,2.5,17.2,6.7
	c-0.1,0.1-3.8,5.9-13.6,9.7c-4.4-8.4-9.4-15.1-9.7-15.6C85.8,67.5,87.8,67.2,89.9,67.2L89.9,67.2z M85.9,69.5L85.9,69.5
	C85.9,69.5,85.9,69.6,85.9,69.5C85.9,69.6,85.9,69.5,85.9,69.5L85.9,69.5z M82.2,69.1c0.4,0.5,5,7.2,9.4,15.4
	c-12.1,3.4-22.6,3.2-23.3,3.2C69.9,79.4,75.1,72.6,82.2,69.1L82.2,69.1z M74.7,106c-3.8-4.2-6.1-9.8-6.1-15.9c0-0.3,0-0.5,0-0.8
	c0.4,0,12.2,0.3,24.4-3.4c0.7,1.3,1.3,2.7,1.9,4.1c-0.3,0-0.6,0.1-1,0.3C81.2,94.4,74.7,106,74.7,106L74.7,106z M91.6,112.5
	c-5.8,0-11.2-2-15.5-5.2l0,0c0,0-0.2-0.2-0.6-0.4c0.2,0.2,0.4,0.3,0.6,0.4c0.1-0.1,4.9-10.3,19.8-15.4c0.1,0,0.1,0,0.2,0
	c3.5,9,5,16.5,5.3,18.7C98.4,111.8,95.1,112.5,91.6,112.5L91.6,112.5z M103,109.7c-0.3-1.5-1.6-8.8-4.9-17.8
	c8.2-1.3,15.3,0.9,15.8,1.1C112.7,99.9,108.7,105.9,103,109.7L103,109.7z M96.7,90.1c-0.2-0.4-0.4-0.9-0.6-1.3
	c-0.4-0.9-0.8-1.7-1.2-2.6c-0.2-0.3-0.3-0.6-0.5-1c10-4,14-9.8,14.1-9.9c3.1,3.8,5.2,8.5,5.6,13.6c0,0.6,0.1,1.3,0.1,2
	C113.9,90.8,105.3,89,96.7,90.1L96.7,90.1z"/>
</svg>
