<?xml version="1.0" encoding="utf-8"?>
<!-- Generator: Adobe Illustrator 18.1.1, SVG Export Plug-In . SVG Version: 6.00 Build 0)  -->
<svg version="1.1" id="_x32_1" xmlns="http://www.w3.org/2000/svg" xmlns:xlink="http://www.w3.org/1999/xlink" x="0px" y="0px"
	 width="178px" height="178.2px" viewBox="0 0 178 178.2" enable-background="new 0 0 178 178.2" xml:space="preserve">
<circle fill="none" stroke="#408F78" stroke-width="3" stroke-miterlimit="10" cx="89" cy="89.5" r="86"/>
<g>
	<path fill="#408F78" d="M96.8,96.2c3.2-2.1,5.3-5.8,5.3-9.9c0-6.5-5.3-11.9-11.9-11.9c-6.5,0-11.9,5.3-11.9,11.9
		c0,4.1,2.1,7.8,5.3,9.9c-7.2,2.7-12.4,9.6-12.4,17.8h2.5c0-8.7,7.7-16.4,16.4-16.4c8.7,0,16.4,7.7,16.4,16.4h2.5
		C109.2,105.8,104,98.8,96.8,96.2z M80.8,86.3c0-5.2,4.2-9.4,9.4-9.4c5.2,0,9.4,4.2,9.4,9.4c0,5.2-4.2,9.4-9.4,9.4
		C85,95.7,80.8,91.5,80.8,86.3z"/>
	<path fill="#408F78" d="M112.6,88.3c3.2-2.1,5.3-5.8,5.3-9.9c0-6.5-5.3-11.9-11.9-11.9c-3.2,0-6,1.3-8.2,3.3
		c-0.8,0.8-1.5,1.6-2,2.6c1,0.4,1.9,0.3,2.8,0.9c0.6-0.9,1.3-1.7,2.1-2.4c1.5-1.1,3.3-1.8,5.3-1.8c4.8,0,9.3,4.5,9.3,9.3
		c0,4-3.3,8-7,9c-0.7,0.2-1.5,0.3-2.3,0.3c-0.3,0-0.6,0-0.8,0c-0.1,1.1-0.2,1-0.5,2.1c0.5,0,0.9-0.1,1.4-0.1c0.6,0,1.3,0,1.9,0.1
		c7.8,0.9,14.5,8.2,14.5,16.3h2.5C125,97.9,119.8,90.9,112.6,88.3z"/>
	<path fill="#408F78" d="M74.4,89.6c0.5,0,0.9,0.1,1.4,0.1c-0.3-1.1-0.5-0.9-0.5-2.1c-0.3,0-0.5,0-0.8,0c-0.8,0-1.6-0.1-2.3-0.3
		c-3.7-1-7-5-7-9c0-4.8,4.5-9.3,9.3-9.3c2,0,3.8,0.7,5.3,1.8c0.8,0.6,2.2,2.1,2.7,3c0.9-0.6,1.2-1.1,2.2-1.5c-0.6-0.9-1.2-1.8-2-2.6
		c-2.1-2-5-3.3-8.2-3.3c-6.5,0-11.9,5.3-11.9,11.9c0,4.1,2.1,7.8,5.3,9.9c-7.2,2.7-12.4,9.6-12.4,17.8H58c0-8.1,6.7-15.4,14.5-16.3
		C73.1,89.7,73.8,89.6,74.4,89.6z"/>
</g>
</svg>
