<?xml version="1.0" encoding="utf-8"?>
<!-- Generator: Adobe Illustrator 18.1.1, SVG Export Plug-In . SVG Version: 6.00 Build 0)  -->
<svg version="1.1" id="_x32_1" xmlns="http://www.w3.org/2000/svg" xmlns:xlink="http://www.w3.org/1999/xlink" x="0px" y="0px"
	 width="178px" height="178.2px" viewBox="0 0 178 178.2" enable-background="new 0 0 178 178.2" xml:space="preserve">
<circle fill="none" stroke="#408F78" stroke-width="3" stroke-miterlimit="10" cx="89" cy="89.5" r="86"/>
<path fill-rule="evenodd" clip-rule="evenodd" fill="none" stroke="#408F78" stroke-width="3" stroke-miterlimit="10" d="M80.3,86.6
	c-1.6,0-2.9,1.3-2.9,2.9c0,1.6,1.3,2.9,2.9,2.9c1.6,0,2.9-1.3,2.9-2.9C83.3,88,81.9,86.6,80.3,86.6L80.3,86.6z M99.4,86.6
	c-1.6,0-2.9,1.3-2.9,2.9c0,1.6,1.3,2.9,2.9,2.9c1.6,0,2.9-1.3,2.9-2.9C102.4,88,101.1,86.6,99.4,86.6L99.4,86.6z M100.5,112.8H79
	c-6.6,0-12-5.4-12-12V79.4c0-6.6,5.4-12,12-12h21.5c6.6,0,12,5.4,12,12v21.5C112.5,107.4,107.1,112.8,100.5,112.8z"/>
</svg>
