<?xml version="1.0" encoding="utf-8"?>
<!-- Generator: Adobe Illustrator 18.1.1, SVG Export Plug-In . SVG Version: 6.00 Build 0)  -->
<svg version="1.1" id="_x32_1" xmlns="http://www.w3.org/2000/svg" xmlns:xlink="http://www.w3.org/1999/xlink" x="0px" y="0px"
	 width="178px" height="178.2px" viewBox="0 0 178 178.2" enable-background="new 0 0 178 178.2" xml:space="preserve">
<circle fill="none" stroke="#408F78" stroke-width="3" stroke-miterlimit="10" cx="89" cy="89.5" r="86"/>
<g>
	<path fill="#408F78" d="M113.1,103.3c0.6,0,1.2-0.4,1.3-1c2-9.6,4.1-19.2,6.1-28.8c0.2-0.8-0.4-1.7-1.3-1.7H64
		c-0.4-1.9-0.8-3.7-1.2-5.6c-0.4-2.1-0.9-4.3-1.3-6.4c-0.1-0.6-0.7-1-1.3-1h-7.5c-1.7,0-1.7,2.7,0,2.7h6.5c1.6,7.5,3.1,15,4.7,22.6
		c0,0.2,0,0.4,0.1,0.5c1.4,6.9,2.9,13.9,4.3,20.8l1.1,5.1c-2.5,0.9-4.4,3.4-4.4,6.3c0,3.5,2.8,6.5,6.3,6.6c3.7,0.2,6.4-2.7,6.8-6.2
		c0-0.1,0-0.3,0-0.4c0-0.1,0-0.3,0-0.4c-0.1-1.3-0.6-2.6-1.3-3.6h29c-0.8,1.1-1.3,2.5-1.3,4c0,3.5,2.8,6.5,6.3,6.6
		c3.7,0.2,6.4-2.7,6.8-6.2c0-0.1,0-0.3,0-0.4c0-0.1,0-0.3,0-0.4c-0.4-3.4-3-6.3-6.5-6.3h-39c-0.5-2.3-1-4.6-1.4-6.9H113.1z
		 M66.8,85.4h8.9c0.9,5.1,1.7,10.2,2.6,15.2H70C68.9,95.6,67.8,90.5,66.8,85.4L66.8,85.4z M92.3,100.6V85.4h11.9
		c-0.9,5.1-1.7,10.2-2.6,15.2H92.3z M89.6,100.6H81c-0.9-5.1-1.7-10.2-2.6-15.2h11.3V100.6z M112,100.6h-7.7
		c0.9-5.1,1.7-10.2,2.6-15.2h8.4C114.2,90.5,113.1,95.6,112,100.6L112,100.6z M112.1,74.6h5.5c-0.6,2.7-1.2,5.4-1.7,8.2H66.2
		c-0.6-2.7-1.1-5.4-1.7-8.2H112.1z M67.6,116.8c0-5.1,7.6-5.1,7.9,0C75.2,121.9,67.6,122,67.6,116.8L67.6,116.8z M114.9,116.8
		c-0.3,5.1-7.9,5.1-7.9,0C107.1,111.7,114.6,111.7,114.9,116.8L114.9,116.8z M114.9,116.8"/>
</g>
</svg>
