<?xml version="1.0" encoding="utf-8"?>
<!-- Generator: Adobe Illustrator 18.1.1, SVG Export Plug-In . SVG Version: 6.00 Build 0)  -->
<svg version="1.1" id="Слой_1" xmlns="http://www.w3.org/2000/svg" xmlns:xlink="http://www.w3.org/1999/xlink" x="0px" y="0px"
	 width="31.9px" height="31.6px" viewBox="0 0 31.9 31.6" enable-background="new 0 0 31.9 31.6" xml:space="preserve">
<path fill="#009379" d="M13.8,29.1c0.5,0.5,2.2,0.4,2.7,0c1.2-1,2.9-2.6,3.3-6.3c0.5-5.4,0.3-7.2,1.3-10.5c0.4-1.3,1.6-2.6,2-3.1
	c0.8-1.1-0.9-1.6-1.3-1.5c-2.2,0.5-7.7,2.8-9.4,7.1C10.2,20,10.8,26.3,13.8,29.1z"/>
<path fill="#009379" d="M28.9,10.1c-0.4-0.6-2.2-0.5-2.7-0.1c-1.2,1-3,2.5-3.5,6.1c-0.7,5.3-0.3,8.6-1.9,11.3
	c-0.7,1.1-1.4,2-1.8,2.5c-0.9,1.1,0.6,1.3,1,1.3c2.2-0.4,7.8-2.5,9.7-6.7C32,19.3,31.6,14.1,28.9,10.1z"/>
<path fill="#009379" d="M14.5,9.3c-1,0.9-1.7,1.9-2.2,2.7c-0.1,0.2-0.5,0.1-0.5-0.2c0.1-2.2,0.3-3.5-0.7-6.2C10.2,3.2,9.4,2.3,9,1.8
	c-0.8-1.1,1-1.5,1.4-1.4c2.2,0.6,6.6,2.6,8,7C18.4,7.4,15.8,8.1,14.5,9.3z"/>
<path fill="#009379" d="M3.1,2.2c0.4-0.5,2.2-0.4,2.7,0C7,3.3,8.7,4.9,9,8.6c0.4,5.1-0.3,6.3,0.9,8.7c0.1,0.2,0,0.5,0,0.8
	c-0.1,0.3-0.4,1.9-0.4,3c0,1,0.2,2-0.1,1.9c-2.3-0.7-6.3-2.6-7.8-6.5C-0.5,11.3,0.2,6.1,3.1,2.2z"/>
</svg>
